<svg xmlns="http://www.w3.org/2000/svg" xmlns:xlink="http://www.w3.org/1999/xlink" width="1920" height="300" viewBox="0 0 1920 300"><defs><linearGradient id="a" y1="0.5" x2="1" y2="0.5" gradientUnits="objectBoundingBox"><stop offset="0" stop-color="#24BFF2"/><stop offset="1" stop-color="#5924F2"/></linearGradient><clipPath id="b"><rect width="1920" height="300" transform="translate(0 5040)" fill="url(#a)"/></clipPath><linearGradient id="d" x1="0.194" y1="0.717" x2="1.004" y2="0.658" xlink:href="#a"/><linearGradient id="e" x1="1.003" y1="0.6" x2="-0.012" y2="0.027" xlink:href="#a"/><linearGradient id="f" x1="-0.104" y1="0.387" x2="1.098" y2="0.46" xlink:href="#a"/><linearGradient id="g" x1="0.427" y1="0.048" x2="1.051" y2="0.856" xlink:href="#a"/></defs><g transform="translate(0 -5040)" clip-path="url(#b)"><rect width="1920" height="300" transform="translate(0 5040)" fill="url(#a)"/><path d="M221.606,5154.957c82.442,68.058,142.531,1.578,239.81,66.279s-82.82,226.685,3.74,233.167-21.634,190.489,92.972,195.121,157.858-39.146,234.706-113.72,159.878-183.084,87.424-299.585S544.62,5230.866,404.758,5097s-163.041-414.548-291.142-382.03,17.266,130.076,30.887,219.4S139.164,5086.9,221.606,5154.957Z" transform="matrix(-0.848, 0.53, -0.53, -0.848, 3506.156, 9376.323)" fill="url(#d)"/><path d="M74.718,5157.426c63.984,130.873-48.55,236.722,25.236,311.3s179.937-19.712,269.906-12.975,99.536,342.324,213.224,372.053,220.857-82.236,277.055-266.445,72.186-363.153-52.263-470.392-314.6,211.369-459.967,72.227-78.622-335.108-223.176-376.89-273.461,133.816-221.163,221.313S10.733,5026.554,74.718,5157.426Z" transform="translate(-3623.117 3613.39) rotate(-68)" fill="url(#e)"/><path d="M-48.117,5131.351c79.979,43.843,11.72,145.785,106.839,211.069s157.728,9.574,233.42,15.243,51.629,263.951,145.69,282.423,163.355-143.325,230.555-208.537,101.345-175.467,37.988-277.341-235.63,38.149-357.932-78.914-100.063-317.519-226.325-360.843S-82.213,4767.9-124.771,4872.124-128.1,5087.508-48.117,5131.351Z" transform="translate(-549.369 314.235) rotate(-22)" fill="url(#f)"/><path d="M-71.04,5170.44c60.931,59.209,100.5,106.174,215,97.168s217.886-123.36,285.491-71.037-25.923,151.826,11.237,235.163,203.077,138.35,273.015,60.642-63.492-134.6-52.226-267.619,231.5-141.278,156.933-299.283-494.035,45.839-587.531,44.511S42.85,4862.421-29.659,4935.1-131.971,5111.232-71.04,5170.44Z" transform="translate(619.625 -78.075) rotate(8)" fill="url(#g)"/></g></svg>
