<svg xmlns="http://www.w3.org/2000/svg" xmlns:xlink="http://www.w3.org/1999/xlink" width="1920" height="210" viewBox="0 0 1920 210"><defs><linearGradient id="a" y1="0.5" x2="1" y2="0.5" gradientUnits="objectBoundingBox"><stop offset="0" stop-color="#24BFF2"/><stop offset="1" stop-color="#5924F2"/></linearGradient><clipPath id="b"><rect width="1920" height="210" transform="translate(0 5040)" fill="url(#a)"/></clipPath><linearGradient id="d" x1="0.194" y1="0.717" x2="1.004" y2="0.658" xlink:href="#a"/><linearGradient id="e" x1="1.003" y1="0.6" x2="-0.012" y2="0.027" xlink:href="#a"/><linearGradient id="f" x1="-0.104" y1="0.387" x2="1.098" y2="0.46" xlink:href="#a"/><linearGradient id="g" x1="0.427" y1="0.048" x2="1.051" y2="0.856" xlink:href="#a"/></defs><g transform="translate(0 -5040)" clip-path="url(#b)"><rect width="1920" height="210" transform="translate(0 5040)" fill="url(#a)"/><path d="M206.545,368.723c84.672,64.489,130.736,20.454,228.543,84.31S389.806,619.644,469.948,636.4s5.87,146.473,111.446,165.557,139.281-9.417,199.6-57.541,121.726-122.028,39.67-223.162S512.581,471.8,366.453,347.96,161.259.872,48.333,9.1,81.681,113.443,106.2,185.334,121.873,304.235,206.545,368.723Z" transform="matrix(-0.848, 0.53, -0.53, -0.848, 927.066, 5301.969)" fill="url(#d)"/><path d="M175.151,380.625c61.12,132.03-11.363,221.7,51.165,300.827s131.477-.133,198.945,15.7,109.536,338.284,197,378.607S777.59,1019.994,800.1,849.4s15.729-340.344-87.8-456.035S500.864,563.052,378.486,414.62,285.223,85.427,173.6,30.342-15.4,130.03,32.532,219.294,114.031,248.6,175.151,380.625Z" transform="translate(785.821 5400.339) rotate(-68)" fill="url(#e)"/><path d="M134.652,327.05c81.18,40.87,26.417,109.408,124.334,167.766s152.085,23.54,225.182,35.634,76.959,201.258,168.985,224.766S794.7,665.877,852.272,624.486s78.795-119.654,7.49-201.856-221.735,3.758-351.086-95.858S379.74,80.715,254.28,35.408,64.12,53.78,34.214,126.69,53.472,286.181,134.652,327.05Z" transform="translate(1080.894 4822.182) rotate(-22)" fill="url(#f)"/><path d="M20,213.937c58.129,39.271,95.523,70.784,209.734,59.693s221.72-96.078,286.769-61.942S484.455,319.92,517.953,377.2s196.177,89.252,268.921,31.513-57.558-92.379-40.857-186.729S982.01,112.7,914.413,4.263,421.354,57.042,328.456,59.971,145.964-8.175,70.872,46.117-38.128,174.667,20,213.937Z" transform="translate(-160.342 4819.874) rotate(8)" fill="url(#g)"/></g></svg>
