<svg xmlns="http://www.w3.org/2000/svg" xmlns:xlink="http://www.w3.org/1999/xlink" viewBox="0 0 121.33 121.32"><defs><style>.cls-1{fill:url(#linear-gradient);}.cls-2{fill:url(#linear-gradient-2);}.cls-3{fill:url(#linear-gradient-3);}.cls-4{fill:#e6fffa;}</style><linearGradient id="linear-gradient" x1="71.52" y1="61.53" x2="108.37" y2="118.13" gradientUnits="userSpaceOnUse"><stop offset="0" stop-color="#24bff2"/><stop offset="1" stop-color="#5924f2"/></linearGradient><linearGradient id="linear-gradient-2" x1="47.3" y1="33.07" x2="75.6" y2="91.47" xlink:href="#linear-gradient"/><linearGradient id="linear-gradient-3" x1="25.38" y1="-0.47" x2="56.63" y2="52.99" xlink:href="#linear-gradient"/></defs><g id="Layer_2" data-name="Layer 2"><g id="wip"><path class="cls-1" d="M121.33,60.67c0,11.29-.51,22.59-1.58,33.84a27.95,27.95,0,0,1-25.23,25.24,364.43,364.43,0,0,1-58.45.73c-1.67-12.1-.85-24.42,6.68-36,16.9-26,45.34-13.9,65.51-42.8a67.78,67.78,0,0,0,9.9-21.9,27.57,27.57,0,0,1,1.59,7.06Q121.35,43.71,121.33,60.67Z"/><path class="cls-2" d="M118.16,19.77a67.78,67.78,0,0,1-9.9,21.9c-20.17,28.9-48.61,16.8-65.51,42.8-7.53,11.59-8.35,23.91-6.68,36-3.08-.19-6.16-.44-9.24-.73A28,28,0,0,1,1.58,94.51c-.08-.82-.15-1.66-.21-2.48A62.31,62.31,0,0,1,17.73,63.41C46,35.12,77.35,52.79,98.42,24.26a57.26,57.26,0,0,0,8.87-18.19,26.15,26.15,0,0,1,4.4,3.59A27.79,27.79,0,0,1,118.16,19.77Z"/><path class="cls-3" d="M107.29,6.07a57.26,57.26,0,0,1-8.87,18.19C77.35,52.79,46,35.12,17.73,63.41A62.31,62.31,0,0,0,1.37,92Q0,76.38,0,60.67q0-17,1.58-33.84A28,28,0,0,1,26.83,1.58Q43.71,0,60.67,0T94.52,1.58A27.72,27.72,0,0,1,107.29,6.07Z"/><path class="cls-4" d="M66.14,34.13h-11L30.3,87.19h14l4.72-11H72.55l4.7,11H91ZM53.56,65.73,60.8,48.94,68,65.73Z"/></g></g></svg>