<svg version="1.0" xmlns="http://www.w3.org/2000/svg" width="700.000000pt" height="700.000000pt" viewBox="0 0 700.000000 700.000000" preserveAspectRatio="xMidYMid meet">
  <g transform="translate(0.000000,700.000000) scale(0.100000,-0.100000)" fill="#000000" stroke="none">
    <path d="M2730 6990 c-435 -19 -957 -54 -1200 -80 -354 -39 -687 -193 -939 -435 -286 -275 -447 -592 -496 -975 -31 -240 -68 -801 -86 -1290 -13 -354 -7 -1421 10 -1715 48 -834 78 -1103 142 -1298 85 -255 220 -469 415 -659 129 -125 248 -210 399 -285 214 -107 388 -150 710 -177 1031 -87 2112 -101 3090 -41 349 22 707 53 807 70 657 114 1185 635 1307 1292 29 152 64 574 93 1123 17 318 17 1646 0 1955 -30 553 -70 1028 -97 1156 -39 188 -141 429 -249 584 -220 319 -565 561 -934 654 -158 40 -494 72 -1117 107 -333 18 -1537 27 -1855 14z m1178 -2165 c171 -364 760 -1620 1048 -2237 156 -333 284 -609 284 -612 0 -4 -176 -5 -391 -4 l-391 3 -135 318 -136 317 -681 0 -681 0 -135 -318 -136 -317 -398 -3 c-376 -2 -398 -1 -393 15 3 10 260 563 572 1228 312 666 630 1346 708 1513 l142 302 315 -2 314 -3 94 -200z" />
    <path d="M3301 3707 c-112 -260 -206 -480 -209 -489 -4 -17 20 -18 412 -18 326 0 416 3 416 13 0 13 -398 947 -409 959 -3 4 -98 -205 -210 -465z" />
  </g>
</svg>
